<?xml version="1.0" encoding="UTF-8"?><svg id="FINAL_ART" xmlns="http://www.w3.org/2000/svg" viewBox="0 0 360 252"><defs><style>.cls-1{fill:#fff;stroke-width:0px;}</style></defs><path class="cls-1" d="M77.18,138.99c0-14.35,11.01-24.61,25.84-24.61,8.23,0,15.09,2.99,19.58,8.43l-7.07,6.53c-3.2-3.67-7.21-5.58-11.97-5.58-8.91,0-15.23,6.26-15.23,15.23s6.32,15.23,15.23,15.23c4.76,0,8.77-1.9,11.97-5.64l7.07,6.53c-4.49,5.51-11.35,8.5-19.65,8.5-14.75,0-25.77-10.27-25.77-24.61Z"/><path class="cls-1" d="M160.48,152.59h-22.1l-4.22,10.2h-11.29l21.21-47.6h10.88l21.28,47.6h-11.56l-4.22-10.2ZM157.01,144.22l-7.55-18.22-7.55,18.22h15.09Z"/><path class="cls-1" d="M211.54,162.78l-9.18-13.26h-10.13v13.26h-11.01v-47.6h20.6c12.71,0,20.67,6.6,20.67,17.27,0,7.14-3.6,12.38-9.79,15.03l10.67,15.3h-11.83ZM201.21,124.16h-8.97v16.59h8.97c6.73,0,10.13-3.13,10.13-8.3s-3.4-8.29-10.13-8.29Z"/><path class="cls-1" d="M268.05,153.95v8.84h-36.85v-47.6h35.97v8.84h-25.02v10.33h22.1v8.57h-22.1v11.01h25.91Z"/><polygon class="cls-1" points="168.42 85.75 135.69 53.01 135.69 53.02 135.68 53.01 102.96 85.75 113.64 96.43 135.69 74.38 157.74 96.43 168.42 85.75"/><polygon class="cls-1" points="205.2 46.2 172.48 13.47 172.47 13.47 172.47 13.47 139.74 46.2 150.42 56.88 172.47 34.83 194.52 56.88 205.2 46.2"/><polygon class="cls-1" points="242.28 85.05 209.55 52.31 209.55 52.31 209.54 52.31 176.82 85.05 187.5 95.73 209.55 73.68 231.6 95.73 242.28 85.05"/><path class="cls-1" d="M13.54,201c0-14.35,11.02-24.61,25.84-24.61,8.23,0,15.09,2.99,19.58,8.43l-7.07,6.53c-3.2-3.67-7.21-5.58-11.97-5.58-8.91,0-15.23,6.26-15.23,15.23s6.32,15.23,15.23,15.23c4.76,0,8.77-1.9,11.97-5.64l7.07,6.53c-4.49,5.51-11.36,8.5-19.65,8.5-14.75,0-25.77-10.27-25.77-24.61Z"/><path class="cls-1" d="M60.39,206.51c0-11.02,8.5-18.83,20.13-18.83s20.06,7.82,20.06,18.83-8.43,18.83-20.06,18.83-20.13-7.82-20.13-18.83ZM89.83,206.51c0-6.32-4.01-10.13-9.32-10.13s-9.38,3.81-9.38,10.13,4.08,10.13,9.38,10.13,9.32-3.81,9.32-10.13Z"/><path class="cls-1" d="M138.14,203.93v20.87h-9.93v-4.56c-1.97,3.33-5.78,5.1-11.15,5.1-8.57,0-13.67-4.76-13.67-11.08s4.56-10.95,15.71-10.95h8.43c0-4.56-2.72-7.21-8.43-7.21-3.88,0-7.89,1.29-10.54,3.4l-3.81-7.41c4.01-2.86,9.93-4.42,15.77-4.42,11.15,0,17.61,5.17,17.61,16.25ZM127.53,213.24v-3.74h-7.28c-4.96,0-6.53,1.84-6.53,4.28,0,2.65,2.24,4.42,5.98,4.42,3.54,0,6.6-1.63,7.82-4.96Z"/><path class="cls-1" d="M143.09,206.51c0-11.02,8.5-18.83,20.4-18.83,7.68,0,13.73,3.33,16.39,9.31l-8.23,4.42c-1.97-3.47-4.89-5.03-8.23-5.03-5.37,0-9.59,3.74-9.59,10.13s4.22,10.13,9.59,10.13c3.33,0,6.25-1.5,8.23-5.03l8.23,4.49c-2.65,5.85-8.7,9.25-16.39,9.25-11.9,0-20.4-7.82-20.4-18.83Z"/><path class="cls-1" d="M222.19,203.86v20.94h-10.61v-19.31c0-5.92-2.72-8.64-7.41-8.64-5.1,0-8.77,3.13-8.77,9.86v18.09h-10.61v-50.45h10.61v17.68c2.86-2.86,6.93-4.35,11.63-4.35,8.64,0,15.16,5.03,15.16,16.18Z"/><path class="cls-1" d="M228.07,177.21c0-3.33,2.65-5.92,6.6-5.92s6.59,2.45,6.59,5.71c0,3.54-2.65,6.12-6.59,6.12s-6.6-2.58-6.6-5.92ZM229.37,188.22h10.61v36.58h-10.61v-36.58Z"/><path class="cls-1" d="M285.19,203.86v20.94h-10.61v-19.31c0-5.92-2.72-8.64-7.41-8.64-5.1,0-8.77,3.13-8.77,9.86v18.09h-10.61v-36.58h10.13v4.28c2.86-3.13,7.14-4.83,12.1-4.83,8.64,0,15.16,5.03,15.16,16.18Z"/><path class="cls-1" d="M331.27,188.22v30.46c0,13.6-7.34,19.85-20.53,19.85-6.94,0-13.67-1.7-17.95-5.03l4.22-7.62c3.13,2.52,8.23,4.15,12.92,4.15,7.48,0,10.74-3.4,10.74-10v-1.56c-2.79,3.06-6.8,4.56-11.56,4.56-10.13,0-18.29-7-18.29-17.68s8.16-17.68,18.29-17.68c5.1,0,9.32,1.7,12.1,5.24v-4.69h10.06ZM320.8,205.35c0-5.37-4.01-8.97-9.59-8.97s-9.66,3.6-9.66,8.97,4.08,8.98,9.66,8.98,9.59-3.6,9.59-8.98Z"/><path class="cls-1" d="M341.65,182.51v-.07c.74-.22,1.26-.74,1.26-1.41,0-.59-.26-1.07-.59-1.33-.44-.26-.96-.44-2.11-.44-1,0-1.78.07-2.33.19v6.07h1.41v-2.44h.67c.78,0,1.15.3,1.26.96.19.7.3,1.26.48,1.48h1.52c-.15-.22-.26-.59-.44-1.52-.19-.81-.52-1.26-1.11-1.48ZM339.99,182.06h-.67v-1.74c.15-.04.41-.07.78-.07.89,0,1.3.37,1.3.93,0,.63-.63.89-1.41.89Z"/><path class="cls-1" d="M340.25,176.25c-3.48,0-6.25,2.7-6.25,6.07s2.77,6.14,6.25,6.14,6.22-2.7,6.22-6.14-2.7-6.07-6.22-6.07ZM340.28,187.17c-2.74,0-4.74-2.15-4.74-4.85s2-4.85,4.7-4.85,4.66,2.18,4.66,4.88-1.96,4.81-4.62,4.81Z"/></svg>